<svg width="336" height="68" viewBox="0 0 336 68" fill="none" xmlns="http://www.w3.org/2000/svg">
<g clip-path="url(#clip0_0_3)">
<rect x="2" y="2" width="64" height="64" fill="#005F9F"/>
<path fill-rule="evenodd" clip-rule="evenodd" d="M18.026 46.1008C16.855 50.4709 12.363 53.0644 7.99286 51.8934C3.62271 50.7224 1.02926 46.2304 2.20024 41.8603C2.98161 38.9442 5.30728 36.8216 8.02315 36.0782L8.87459 35.8806L17.0313 33.9872L18.0069 30.3464L6.63921 32.9708L7.9004 28.4759L19.2075 25.8655L21.5323 17.1892C22.7033 12.8191 27.1953 10.2256 31.5654 11.3966C35.9356 12.5676 38.529 17.0596 37.358 21.4297C36.5767 24.3458 34.251 26.4684 31.5351 27.2118L22.527 29.3028L21.5514 32.9436L34.9508 29.8501L33.5168 34.3849L30.0104 35.1944C27.8062 35.7033 26.4319 37.9027 26.9408 40.1069C27.4497 42.311 29.649 43.6854 31.8532 43.1765C33.3714 42.826 34.786 41.6669 35.2851 40.9063C35.7842 40.1457 36.2013 38.8228 36.2516 37.7602C36.2633 37.5116 36.2659 37.2112 36.2687 36.8792C36.2779 35.7927 36.29 34.3683 36.6375 33.3149C37.5047 30.686 39.7891 28.7331 42.6834 28.0649L48.4829 26.726L47.8728 28.6552L47.02 31.1361L43.5137 31.9456C41.3095 32.4545 39.9352 34.6538 40.4441 36.858C40.9529 39.0622 43.2434 40.5468 45.4476 40.038C46.9659 39.6874 48.3804 38.5284 48.8795 37.7678C49.3786 37.0071 49.7988 35.6179 49.846 34.6217C49.8564 34.4015 49.8584 34.1322 49.8606 33.831L49.8606 33.8307C49.8684 32.7696 49.8792 31.3123 50.2715 30.206C51.1757 27.6566 53.3222 25.6088 56.1531 24.9552L62.0631 23.5908L61.4557 25.5113L60.6002 28.0009L57.1081 28.8071C54.9039 29.316 53.5296 31.5153 54.0385 33.7195C54.5473 35.9237 56.7131 37.4371 58.9173 36.9282C60.4355 36.5777 62.0496 35.4169 62.2483 33.3677L66.1754 32.461C66.4081 36.3782 63.7902 40.007 59.8387 40.9192C57.0078 41.5728 54.1808 40.6732 52.2506 38.7782C51.3465 41.3275 49.2 43.3754 46.369 44.029C43.4747 44.6972 40.5845 43.7419 38.6527 41.7592C37.7855 44.3881 35.6066 46.5137 32.7123 47.1819C28.3039 48.1996 23.9052 45.451 22.8874 41.0427C22.5518 39.5888 22.6258 38.1359 23.0339 36.8051L20.3508 37.4245L18.026 46.1008ZM9.05299 47.9369C11.2381 48.5224 13.484 47.2257 14.0695 45.0406L15.8306 38.4681L8.8946 40.0694C7.59974 40.4742 6.53378 41.513 6.15667 42.9204C5.57119 45.1055 6.86791 47.3515 9.05299 47.9369ZM30.5053 15.353C28.3202 14.7676 26.0742 16.0643 25.4887 18.2494L23.7276 24.8219L30.6637 23.2206C31.9585 22.8158 33.0245 21.777 33.4016 20.3696C33.9871 18.1845 32.6904 15.9385 30.5053 15.353Z" fill="white"/>
</g>
<rect x="1" y="1" width="66" height="66" stroke="white" stroke-width="2"/>
<path d="M325.332 59.112V42.312H335.868V45.24H328.26V48.648H334.296V51.576H328.26V56.184H335.868V59.112H325.332Z" fill="white"/>
<path d="M314.873 59.424C313.705 59.424 312.617 59.196 311.609 58.74C310.609 58.284 309.737 57.656 308.993 56.856C308.249 56.048 307.665 55.12 307.241 54.072C306.825 53.016 306.617 51.888 306.617 50.688C306.617 49.424 306.841 48.264 307.289 47.208C307.745 46.152 308.365 45.236 309.149 44.46C309.933 43.684 310.821 43.084 311.813 42.66C312.813 42.236 313.853 42.024 314.933 42.024C316.141 42.024 317.313 42.308 318.449 42.876C319.593 43.436 320.601 44.304 321.473 45.48L318.857 46.884C318.321 46.228 317.705 45.74 317.009 45.42C316.321 45.092 315.617 44.928 314.897 44.928C314.193 44.928 313.517 45.072 312.869 45.36C312.229 45.648 311.657 46.056 311.153 46.584C310.657 47.104 310.265 47.72 309.977 48.432C309.689 49.136 309.545 49.908 309.545 50.748C309.545 51.54 309.685 52.288 309.965 52.992C310.245 53.688 310.629 54.3 311.117 54.828C311.613 55.348 312.185 55.756 312.833 56.052C313.481 56.348 314.177 56.496 314.921 56.496C315.417 56.496 315.901 56.42 316.373 56.268C316.853 56.108 317.301 55.88 317.717 55.584C318.141 55.288 318.517 54.928 318.845 54.504C319.181 54.08 319.461 53.6 319.685 53.064H316.625V50.508H323.129C323.161 51.732 322.969 52.88 322.553 53.952C322.137 55.024 321.549 55.972 320.789 56.796C320.029 57.62 319.145 58.264 318.137 58.728C317.129 59.192 316.041 59.424 314.873 59.424Z" fill="white"/>
<path d="M293.996 59.112V42.312H304.532V45.24H296.924V48.648H302.96V51.576H296.924V56.184H304.532V59.112H293.996Z" fill="white"/>
<path d="M281.433 59.112V42.312H284.361V56.184H291.357V59.112H281.433Z" fill="white"/>
<path d="M268.871 59.112V42.312H271.799V56.184H278.795V59.112H268.871Z" fill="white"/>
<path d="M258.413 59.424C257.277 59.424 256.209 59.2 255.209 58.752C254.209 58.296 253.329 57.668 252.569 56.868C251.809 56.068 251.213 55.144 250.781 54.096C250.349 53.04 250.133 51.912 250.133 50.712C250.133 49.512 250.349 48.388 250.781 47.34C251.213 46.284 251.809 45.356 252.569 44.556C253.329 43.756 254.209 43.132 255.209 42.684C256.209 42.228 257.277 42 258.413 42C259.557 42 260.629 42.228 261.629 42.684C262.629 43.132 263.509 43.756 264.269 44.556C265.029 45.356 265.621 46.284 266.045 47.34C266.477 48.388 266.693 49.512 266.693 50.712C266.693 51.912 266.477 53.04 266.045 54.096C265.621 55.144 265.029 56.068 264.269 56.868C263.509 57.668 262.629 58.296 261.629 58.752C260.629 59.2 259.557 59.424 258.413 59.424ZM258.413 56.496C259.149 56.496 259.841 56.344 260.489 56.04C261.137 55.736 261.705 55.32 262.193 54.792C262.689 54.256 263.073 53.64 263.345 52.944C263.625 52.248 263.765 51.504 263.765 50.712C263.765 49.92 263.625 49.176 263.345 48.48C263.065 47.776 262.677 47.16 262.181 46.632C261.693 46.104 261.125 45.688 260.477 45.384C259.837 45.08 259.149 44.928 258.413 44.928C257.677 44.928 256.985 45.08 256.337 45.384C255.689 45.688 255.117 46.108 254.621 46.644C254.133 47.172 253.749 47.784 253.469 48.48C253.197 49.176 253.061 49.92 253.061 50.712C253.061 51.512 253.201 52.26 253.481 52.956C253.761 53.652 254.145 54.268 254.633 54.804C255.129 55.332 255.697 55.748 256.337 56.052C256.985 56.348 257.677 56.496 258.413 56.496Z" fill="white"/>
<path d="M241.842 59.424C240.706 59.424 239.638 59.2 238.638 58.752C237.638 58.296 236.758 57.668 235.998 56.868C235.246 56.068 234.654 55.144 234.222 54.096C233.798 53.04 233.586 51.912 233.586 50.712C233.586 49.504 233.798 48.376 234.222 47.328C234.654 46.272 235.246 45.348 235.998 44.556C236.758 43.756 237.638 43.132 238.638 42.684C239.638 42.228 240.706 42 241.842 42C243.202 42 244.454 42.316 245.598 42.948C246.742 43.572 247.69 44.408 248.442 45.456L245.826 46.86C245.354 46.276 244.766 45.808 244.062 45.456C243.366 45.104 242.626 44.928 241.842 44.928C241.106 44.928 240.414 45.08 239.766 45.384C239.118 45.68 238.55 46.096 238.062 46.632C237.574 47.16 237.194 47.776 236.922 48.48C236.65 49.176 236.514 49.92 236.514 50.712C236.514 51.512 236.65 52.26 236.922 52.956C237.202 53.652 237.586 54.268 238.074 54.804C238.562 55.332 239.126 55.748 239.766 56.052C240.414 56.348 241.106 56.496 241.842 56.496C242.642 56.496 243.386 56.32 244.074 55.968C244.77 55.608 245.354 55.136 245.826 54.552L248.442 55.968C247.69 57.008 246.742 57.844 245.598 58.476C244.454 59.108 243.202 59.424 241.842 59.424Z" fill="white"/>
<path d="M222.682 42.312H226.138L220.366 51.54V59.112H217.438V51.54L211.666 42.312H215.122L218.902 48.348L222.682 42.312Z" fill="white"/>
<path d="M209.989 42.312V45.24H204.853V59.112H201.925V45.24H196.789V42.312H209.989Z" fill="white"/>
<path d="M191.09 59.112V42.312H194.018V59.112H191.09Z" fill="white"/>
<path d="M174.652 59.112V42.312H177.82L184.912 53.82V42.312H187.84V59.112H184.684L177.58 47.604V59.112H174.652Z" fill="white"/>
<path d="M165.353 59.424C164.009 59.424 162.829 59.096 161.813 58.44C160.805 57.784 160.021 56.904 159.461 55.8C158.901 54.688 158.621 53.456 158.621 52.104V42.312H161.549V52.104C161.549 52.904 161.697 53.64 161.993 54.312C162.297 54.976 162.729 55.508 163.289 55.908C163.857 56.3 164.545 56.496 165.353 56.496C166.169 56.496 166.857 56.3 167.417 55.908C167.977 55.508 168.401 54.976 168.689 54.312C168.985 53.64 169.133 52.904 169.133 52.104V42.312H172.061V52.104C172.061 53.12 171.901 54.072 171.581 54.96C171.261 55.84 170.805 56.616 170.213 57.288C169.621 57.96 168.913 58.484 168.089 58.86C167.273 59.236 166.361 59.424 165.353 59.424Z" fill="white"/>
<path d="M137.105 59.112L140.369 42.312H142.793L146.885 53.076L150.977 42.312H153.401L156.665 59.112H153.677L151.661 48.72L147.881 58.728H145.877L142.097 48.72L140.093 59.112H137.105Z" fill="white"/>
<path d="M114.675 59.112L117.939 42.312H120.363L124.455 53.076L128.547 42.312H130.971L134.235 59.112H131.247L129.231 48.72L125.451 58.728H123.447L119.667 48.72L117.663 59.112H114.675Z" fill="white"/>
<path d="M104.827 59.424C103.691 59.424 102.623 59.2 101.623 58.752C100.623 58.296 99.7429 57.668 98.9829 56.868C98.2229 56.068 97.6269 55.144 97.1949 54.096C96.7629 53.04 96.5469 51.912 96.5469 50.712C96.5469 49.512 96.7629 48.388 97.1949 47.34C97.6269 46.284 98.2229 45.356 98.9829 44.556C99.7429 43.756 100.623 43.132 101.623 42.684C102.623 42.228 103.691 42 104.827 42C105.971 42 107.043 42.228 108.043 42.684C109.043 43.132 109.923 43.756 110.683 44.556C111.443 45.356 112.035 46.284 112.459 47.34C112.891 48.388 113.107 49.512 113.107 50.712C113.107 51.912 112.891 53.04 112.459 54.096C112.035 55.144 111.443 56.068 110.683 56.868C109.923 57.668 109.043 58.296 108.043 58.752C107.043 59.2 105.971 59.424 104.827 59.424ZM104.827 56.496C105.563 56.496 106.255 56.344 106.903 56.04C107.551 55.736 108.119 55.32 108.607 54.792C109.103 54.256 109.487 53.64 109.759 52.944C110.039 52.248 110.179 51.504 110.179 50.712C110.179 49.92 110.039 49.176 109.759 48.48C109.479 47.776 109.091 47.16 108.595 46.632C108.107 46.104 107.539 45.688 106.891 45.384C106.251 45.08 105.563 44.928 104.827 44.928C104.091 44.928 103.399 45.08 102.751 45.384C102.103 45.688 101.531 46.108 101.035 46.644C100.547 47.172 100.163 47.784 99.8829 48.48C99.6109 49.176 99.4749 49.92 99.4749 50.712C99.4749 51.512 99.6149 52.26 99.8949 52.956C100.175 53.652 100.559 54.268 101.047 54.804C101.543 55.332 102.111 55.748 102.751 56.052C103.399 56.348 104.091 56.496 104.827 56.496Z" fill="white"/>
<path d="M88.256 59.424C87.12 59.424 86.052 59.2 85.052 58.752C84.052 58.296 83.172 57.668 82.412 56.868C81.66 56.068 81.068 55.144 80.636 54.096C80.212 53.04 80 51.912 80 50.712C80 49.504 80.212 48.376 80.636 47.328C81.068 46.272 81.66 45.348 82.412 44.556C83.172 43.756 84.052 43.132 85.052 42.684C86.052 42.228 87.12 42 88.256 42C89.616 42 90.868 42.316 92.012 42.948C93.156 43.572 94.104 44.408 94.856 45.456L92.24 46.86C91.768 46.276 91.18 45.808 90.476 45.456C89.78 45.104 89.04 44.928 88.256 44.928C87.52 44.928 86.828 45.08 86.18 45.384C85.532 45.68 84.964 46.096 84.476 46.632C83.988 47.16 83.608 47.776 83.336 48.48C83.064 49.176 82.928 49.92 82.928 50.712C82.928 51.512 83.064 52.26 83.336 52.956C83.616 53.652 84 54.268 84.488 54.804C84.976 55.332 85.54 55.748 86.18 56.052C86.828 56.348 87.52 56.496 88.256 56.496C89.056 56.496 89.8 56.32 90.488 55.968C91.184 55.608 91.768 55.136 92.24 54.552L94.856 55.968C94.104 57.008 93.156 57.844 92.012 58.476C90.868 59.108 89.616 59.424 88.256 59.424Z" fill="white"/>
<path d="M261.729 13.312H265.185L259.413 22.54V30.112H256.485V22.54L250.713 13.312H254.169L257.949 19.348L261.729 13.312Z" fill="white"/>
<path d="M249.036 13.312V16.24H243.9V30.112H240.972V16.24H235.836V13.312H249.036Z" fill="white"/>
<path d="M220.238 30.112V13.312H223.406L230.498 24.82V13.312H233.426V30.112H230.27L223.166 18.604V30.112H220.238Z" fill="white"/>
<path d="M210.939 30.424C209.595 30.424 208.415 30.096 207.399 29.44C206.391 28.784 205.607 27.904 205.047 26.8C204.487 25.688 204.207 24.456 204.207 23.104V13.312H207.135V23.104C207.135 23.904 207.283 24.64 207.579 25.312C207.883 25.976 208.315 26.508 208.875 26.908C209.443 27.3 210.131 27.496 210.939 27.496C211.755 27.496 212.443 27.3 213.003 26.908C213.563 26.508 213.987 25.976 214.275 25.312C214.571 24.64 214.719 23.904 214.719 23.104V13.312H217.647V23.104C217.647 24.12 217.487 25.072 217.167 25.96C216.847 26.84 216.391 27.616 215.799 28.288C215.207 28.96 214.499 29.484 213.675 29.86C212.859 30.236 211.947 30.424 210.939 30.424Z" fill="white"/>
<path d="M193.725 30.424C192.589 30.424 191.521 30.2 190.521 29.752C189.521 29.296 188.641 28.668 187.881 27.868C187.121 27.068 186.525 26.144 186.093 25.096C185.661 24.04 185.445 22.912 185.445 21.712C185.445 20.512 185.661 19.388 186.093 18.34C186.525 17.284 187.121 16.356 187.881 15.556C188.641 14.756 189.521 14.132 190.521 13.684C191.521 13.228 192.589 13 193.725 13C194.869 13 195.941 13.228 196.941 13.684C197.941 14.132 198.821 14.756 199.581 15.556C200.341 16.356 200.933 17.284 201.357 18.34C201.789 19.388 202.005 20.512 202.005 21.712C202.005 22.912 201.789 24.04 201.357 25.096C200.933 26.144 200.341 27.068 199.581 27.868C198.821 28.668 197.941 29.296 196.941 29.752C195.941 30.2 194.869 30.424 193.725 30.424ZM193.725 27.496C194.461 27.496 195.153 27.344 195.801 27.04C196.449 26.736 197.017 26.32 197.505 25.792C198.001 25.256 198.385 24.64 198.657 23.944C198.937 23.248 199.077 22.504 199.077 21.712C199.077 20.92 198.937 20.176 198.657 19.48C198.377 18.776 197.989 18.16 197.493 17.632C197.005 17.104 196.437 16.688 195.789 16.384C195.149 16.08 194.461 15.928 193.725 15.928C192.989 15.928 192.297 16.08 191.649 16.384C191.001 16.688 190.429 17.108 189.933 17.644C189.445 18.172 189.061 18.784 188.781 19.48C188.509 20.176 188.373 20.92 188.373 21.712C188.373 22.512 188.513 23.26 188.793 23.956C189.073 24.652 189.457 25.268 189.945 25.804C190.441 26.332 191.009 26.748 191.649 27.052C192.297 27.348 192.989 27.496 193.725 27.496Z" fill="white"/>
<path d="M177.154 30.424C176.018 30.424 174.95 30.2 173.95 29.752C172.95 29.296 172.07 28.668 171.31 27.868C170.558 27.068 169.966 26.144 169.534 25.096C169.11 24.04 168.898 22.912 168.898 21.712C168.898 20.504 169.11 19.376 169.534 18.328C169.966 17.272 170.558 16.348 171.31 15.556C172.07 14.756 172.95 14.132 173.95 13.684C174.95 13.228 176.018 13 177.154 13C178.514 13 179.766 13.316 180.91 13.948C182.054 14.572 183.002 15.408 183.754 16.456L181.138 17.86C180.666 17.276 180.078 16.808 179.374 16.456C178.678 16.104 177.938 15.928 177.154 15.928C176.418 15.928 175.726 16.08 175.078 16.384C174.43 16.68 173.862 17.096 173.374 17.632C172.886 18.16 172.506 18.776 172.234 19.48C171.962 20.176 171.826 20.92 171.826 21.712C171.826 22.512 171.962 23.26 172.234 23.956C172.514 24.652 172.898 25.268 173.386 25.804C173.874 26.332 174.438 26.748 175.078 27.052C175.726 27.348 176.418 27.496 177.154 27.496C177.954 27.496 178.698 27.32 179.386 26.968C180.082 26.608 180.666 26.136 181.138 25.552L183.754 26.968C183.002 28.008 182.054 28.844 180.91 29.476C179.766 30.108 178.514 30.424 177.154 30.424Z" fill="white"/>
<path d="M147.535 30.112V13.312H150.703L157.795 24.82V13.312H160.723V30.112H157.567L150.463 18.604V30.112H147.535Z" fill="white"/>
<path d="M141.356 30.112V13.312H144.284V30.112H141.356Z" fill="white"/>
<path d="M129.502 13.312H132.874L138.982 30.112H135.874L134.794 27.136H127.594L126.514 30.112H123.406L129.502 13.312ZM128.662 24.208H133.714L131.182 17.284L128.662 24.208Z" fill="white"/>
<path d="M109.988 30.112V13.312H116.432C117.344 13.312 118.168 13.54 118.904 13.996C119.64 14.452 120.224 15.064 120.656 15.832C121.088 16.592 121.304 17.436 121.304 18.364C121.304 19.124 121.164 19.824 120.884 20.464C120.612 21.096 120.228 21.644 119.732 22.108C119.244 22.572 118.68 22.924 118.04 23.164L122.06 30.112H118.688L114.8 23.428H112.916V30.112H109.988ZM112.916 20.5H116.096C116.512 20.5 116.892 20.396 117.236 20.188C117.58 19.98 117.856 19.7 118.064 19.348C118.272 18.996 118.376 18.604 118.376 18.172C118.376 17.732 118.272 17.336 118.064 16.984C117.856 16.632 117.58 16.352 117.236 16.144C116.892 15.936 116.512 15.832 116.096 15.832H112.916V20.5Z" fill="white"/>
<path d="M99.53 30.424C98.394 30.424 97.326 30.2 96.326 29.752C95.326 29.296 94.446 28.668 93.686 27.868C92.926 27.068 92.33 26.144 91.898 25.096C91.466 24.04 91.25 22.912 91.25 21.712C91.25 20.512 91.466 19.388 91.898 18.34C92.33 17.284 92.926 16.356 93.686 15.556C94.446 14.756 95.326 14.132 96.326 13.684C97.326 13.228 98.394 13 99.53 13C100.674 13 101.746 13.228 102.746 13.684C103.746 14.132 104.626 14.756 105.386 15.556C106.146 16.356 106.738 17.284 107.162 18.34C107.594 19.388 107.81 20.512 107.81 21.712C107.81 22.912 107.594 24.04 107.162 25.096C106.738 26.144 106.146 27.068 105.386 27.868C104.626 28.668 103.746 29.296 102.746 29.752C101.746 30.2 100.674 30.424 99.53 30.424ZM99.53 27.496C100.266 27.496 100.958 27.344 101.606 27.04C102.254 26.736 102.822 26.32 103.31 25.792C103.806 25.256 104.19 24.64 104.462 23.944C104.742 23.248 104.882 22.504 104.882 21.712C104.882 20.92 104.742 20.176 104.462 19.48C104.182 18.776 103.794 18.16 103.298 17.632C102.81 17.104 102.242 16.688 101.594 16.384C100.954 16.08 100.266 15.928 99.53 15.928C98.794 15.928 98.102 16.08 97.454 16.384C96.806 16.688 96.234 17.108 95.738 17.644C95.25 18.172 94.866 18.784 94.586 19.48C94.314 20.176 94.178 20.92 94.178 21.712C94.178 22.512 94.318 23.26 94.598 23.956C94.878 24.652 95.262 25.268 95.75 25.804C96.246 26.332 96.814 26.748 97.454 27.052C98.102 27.348 98.794 27.496 99.53 27.496Z" fill="white"/>
<path d="M80.48 30.112V13.312H83.408V27.184H90.404V30.112H80.48Z" fill="white"/>
<defs>
<clipPath id="clip0_0_3">
<rect x="2" y="2" width="64" height="64" fill="white"/>
</clipPath>
</defs>
</svg>
